PathFileType	4	(X/Y/Z)	D:\Share\Shared_Data\Ergonomics\Sit To Stand Pertubation\S2\Perturbed.trc
DataRate	CameraRate	NumFrames	NumMarkers	Units	OrigDataRate	OrigDataStartFrame	OrigNumFrames	
100	100	9	18	m	100	11689	261
Frame#	Time	R_Toe			R_ASIS			R_Pelvis			V_Sacral			L_Pelvis			L_ASIS			Clavical			R_Acromium			L_Acromium			Sternum			Torso			R_Thigh_Med			R_Thigh_Lat			R_Thigh			R_Shank_Med			R_Shank_Lat			R_Shank			R_Heel			
		X1	Y1	Z1	X2	Y2	Z2	X3	Y3	Z3	X4	Y4	Z4	X5	Y5	Z5	X6	Y6	Z6	X7	Y7	Z7	X8	Y8	Z8	X9	Y9	Z9	X10	Y10	Z10	X11	Y11	Z11	X12	Y12	Z12	X13	Y13	Z13	X14	Y14	Z14	X15	Y15	Z15	X16	Y16	Z16	X17	Y17	Z17	X18	Y18	Z18	

11689	116.88	0.43485846	0.064895645	0.14770499	0.4269975	1.023014	0.14341751	0.35076791	1.0244097	0.19033723	0.20522784	1.0231133	0.029370634	0.29925418	1.025153	-0.15329025	0.39620407	1.0338557	-0.13246637	0.40661972	1.4521486	0.0058699908	0.31007098	1.4747263	0.21455817	0.28983829	1.4813519	-0.17474432	0.45657578	1.2942416	-3.7849963e-05	0.4126124	1.413552	-0.10989616	0.32577588	0.49343369	0.092790535	0.31746027	0.51863715	0.18195844	0.41521143	0.67286084	0.1615629	0.30025974	0.10628558	0.10586943	0.27799365	0.099803284	0.19700412	0.28757114	0.37379767	0.21562372	0.19806699	0.061232262	0.14852754
11690	116.89	0.43486325	0.064891586	0.14770581	0.42706418	1.023019	0.14347696	0.35084045	1.0244087	0.19039137	0.20535411	1.0230843	0.02934458	0.29945245	1.0251595	-0.15330286	0.39639752	1.0338323	-0.13240367	0.40678528	1.4521567	0.0058494477	0.31013171	1.4747925	0.21448422	0.29006216	1.481298	-0.17484964	0.45676236	1.2942484	-1.0684155e-05	0.41284564	1.4135371	-0.1099197	0.32581067	0.49340891	0.092784927	0.31752194	0.5186145	0.18197391	0.41528638	0.67286029	0.16153407	0.30026456	0.10627927	0.10586091	0.27799713	0.099807693	0.19699118	0.28761331	0.37379742	0.21563634	0.19807494	0.061233913	0.14852354
11691	116.9	0.4348678	0.06488858	0.14770686	0.42710196	1.0230308	0.14353404	0.35088644	1.0244122	0.19044652	0.20544875	1.0230477	0.029329258	0.29962039	1.0251536	-0.15329306	0.39655746	1.0338098	-0.13234029	0.40694482	1.4521616	0.0058170395	0.31020038	1.4748621	0.21440225	0.29028067	1.4812545	-0.17497156	0.45693326	1.294251	1.4052138e-06	0.41306894	1.4135217	-0.10995495	0.32583981	0.49338776	0.092784637	0.31757718	0.51859589	0.18199063	0.41534982	0.6728653	0.16150418	0.30026904	0.1062743	0.105854	0.27800159	0.099812439	0.19698155	0.28765192	0.37379749	0.21564975	0.19808192	0.061236786	0.14852036
11692	116.91	0.43487183	0.064886597	0.14770825	0.42711099	1.0230472	0.14358934	0.3509039	1.0244188	0.19050247	0.20551006	1.0230015	0.029324558	0.29975546	1.0251331	-0.1532618	0.3966814	1.0337878	-0.13227568	0.40709793	1.4521606	0.0057713165	0.31027737	1.4749347	0.21431186	0.2904957	1.4812208	-0.17510573	0.45708673	1.2942468	-1.5563783e-06	0.41328223	1.4135048	-0.11000157	0.32586292	0.49336819	0.09278904	0.317625	0.51858026	0.18200865	0.41540234	0.67287463	0.16148085	0.30027325	0.10627089	0.10584873	0.2780065	0.099816803	0.19697508	0.28768539	0.37379727	0.21566396	0.1980876	0.06124025	0.14851776
11693	116.92	0.43487518	0.064885567	0.14770972	0.42709167	1.0230663	0.14364334	0.35089224	1.0244268	0.19055911	0.20553754	1.0229452	0.029329529	0.29985593	1.0250975	-0.15321111	0.39676755	1.0337661	-0.13220947	0.4072446	1.4521519	0.0057115493	0.31036215	1.4750088	0.21421315	0.29070755	1.4811964	-0.17524521	0.45722101	1.2942338	-1.8033773e-05	0.41348511	1.4134847	-0.1100591	0.32587866	0.49334891	0.092796982	0.31766449	0.51856683	0.18202779	0.41544321	0.67288666	0.16147011	0.30027734	0.10626907	0.10584501	0.27801135	0.099820236	0.19697136	0.28771231	0.37379645	0.2156787	0.19809192	0.061243603	0.14851534
11694	116.93	0.43487793	0.064885361	0.14771068	0.42704471	1.0230862	0.14369618	0.35085233	1.0244352	0.19061629	0.20553156	1.0228793	0.029342546	0.29992053	1.0250464	-0.15314407	0.3968147	1.0337444	-0.13214154	0.40738489	1.452135	0.0056380649	0.31045422	1.4750842	0.21410719	0.29091678	1.4811808	-0.17538304	0.45733374	1.2942109	-4.5272827e-05	0.41367715	1.4134602	-0.11012698	0.32588452	0.49332916	0.092806702	0.3176954	0.51855463	0.18204767	0.41547043	0.67290021	0.1614756	0.30028107	0.10626854	0.10584261	0.27801581	0.099822548	0.19696967	0.2877316	0.37379495	0.21569345	0.19809502	0.06124646	0.1485128
11695	116.94	0.43488007	0.064885735	0.14771074	0.42697095	1.0231061	0.14374724	0.35078543	1.0244429	0.19067368	0.20549287	1.0228063	0.029361753	0.29994815	1.0249803	-0.15306541	0.39682172	1.0337214	-0.13207214	0.40751907	1.4521105	0.0055523582	0.31055344	1.4751605	0.21399606	0.2911243	1.4811747	-0.17551489	0.45742316	1.294177	-8.0105759e-05	0.41385788	1.4134293	-0.1102045	0.32587653	0.49330893	0.092816048	0.31771753	0.51854309	0.18206793	0.41548145	0.67291431	0.16149814	0.30028409	0.10626889	0.10584117	0.27801965	0.099823936	0.19696915	0.28774274	0.37379269	0.21570769	0.19809708	0.061248825	0.14851009
11696	116.95	0.4348819	0.06488633	0.1477099	0.42687091	1.0231255	0.14379497	0.35069275	1.02445	0.19073093	0.20542239	1.0227283	0.029385643	0.29993713	1.024902	-0.15298239	0.39678748	1.0336971	-0.13200209	0.40764734	1.4520802	0.005456883	0.31066028	1.4752385	0.21388245	0.29133142	1.4811788	-0.17563962	0.45748959	1.2941327	-0.0001199251	0.41402692	1.41339	-0.1102905	0.32585217	0.4932887	0.092823349	0.31773044	0.51853131	0.18208823	0.41547382	0.67292902	0.16153625	0.30028616	0.10626984	0.10584044	0.27802289	0.099824799	0.19696899	0.28774579	0.37378976	0.21572112	0.19809822	0.061251102	0.14850748
11697	116.96	0.43488345	0.064886864	0.14770851	0.42674442	1.0231451	0.14383739	0.35057504	1.024457	0.19078761	0.20532082	1.0226482	0.0294132	0.29988458	1.0248179	-0.15290584	0.39671103	1.0336704	-0.13193294	0.4077702	1.4520463	0.0053546333	0.31077557	1.4753191	0.21376874	0.29153906	1.4811931	-0.17575821	0.45753613	1.2940784	-0.00016324754	0.4141843	1.4133417	-0.11038321	0.32581277	0.49326907	0.092828735	0.31773349	0.51851929	0.18210844	0.41544559	0.67294452	0.16158653	0.30028735	0.10627123	0.1058403	0.27802557	0.099825638	0.19696893	0.28774133	0.37378607	0.2157338	0.19809854	0.061253754	0.1485054
